<?xml version="1.0" encoding="utf-8"?>
<!-- Generator: Adobe Illustrator 22.1.0, SVG Export Plug-In . SVG Version: 6.00 Build 0)  -->
<svg version="1.1" id="Слой_3" xmlns="http://www.w3.org/2000/svg" xmlns:xlink="http://www.w3.org/1999/xlink" x="0px" y="0px"
	viewBox="0 0 399.9 578.6" enable-background="new 0 0 399.9 578.6" xml:space="preserve">
<path fill="#DC7DFF" stroke="#000000" stroke-miterlimit="10" d="M306.3,17.4l0.3,0.3c1.3,1.5,2.4,3,3.4,4.7c6.9,11.9,8,14.4,8,14.4
	c3.4,7.4,17.9,38.5,23.8,50.5c3.9,7.6,6.9,15.7,9,24l0,0c3.1,8.2,7.2,19.9,11.6,34.1c10.2,33,16.2,62.2,21.9,98.1
	c7.4,46.5,13.6,90.8,15,150.7c0.3,13.8,1,60.6-14.5,97c-11,26-25.3,41.8-25.3,41.8c-4.3,5.4-7.8,9.1-13.5,17.5
	c-5.3,7.7-6.5,10.8-10.7,14.5c-6.5,5.6-13.8,7.2-18.7,8c-44.6,7.8-104.2,5.5-104.2,5.5c-43.7-1.7-65.5-2.5-69.2-2.6
	c-22.3-0.8-44.4-3.9-66.1-9.3c-4.7-1.2-12.2-3.3-18.6-9.5c-3.1-3-3.9-5-7.7-10.1c-4.4-5.7-9.4-10.9-14.8-15.7
	c-17.1-16.5-32.1-52.7-35.3-87l0,0c-1.3-48.3,0-123.9,16-203.9c5.4-27.1,11.2-48,22.8-89.7c3.9-14.2,13.4-48,28.5-80.5
	c1-2.1,4.5-9.7,9.9-19.3c10.6-19,17.9-31.9,28.6-39.8c1.1-0.8,2.2-1.5,2.2-1.5c2.4-1.4,5-2.4,7.7-3.1c3.3-0.9,6.7-1.6,10.1-2.1
	c6.8-0.6,15.7-1.4,26-2c25.4-1.5,45.1-1.3,53.6-1.2c18.9,0.3,33.5,1.6,62.8,4.2c0,0,4.6,0.4,13.9,2c7.8,1.4,12.3,2.5,16.9,5
	C302.2,13.7,304.4,15.4,306.3,17.4z"/>
	<g>
	<path fill="#002B30" stroke="#000000" stroke-miterlimit="10" d="M46.3,367.8c4.9,3.3,5.6,4.6,5.4,5.2c-0.4,1-3.4-0.3-6.1,1.4
		c-2.3,1.5-2.9,4.4-3.2,6.1c-0.5,1.9-0.3,3.9,0.5,5.7c0.9,1.6,1.9,1.3,3.6,2.8c0.7,0.7,1.5,1.6,4.1,8.8c1.6,4.5,1.6,5.1,2.6,6.2
		c2.2,2.6,4.1,1.9,6.2,3.6c5.2,4.3,0.4,13.9,4.9,17c2.5,1.7,6.2,0.5,8.5-0.3c5-1.6,4.9-4.2,8.5-4.9c3.9-0.8,5.2,2,13.4,4.6
		c3.6,1.1,7,2.2,11.4,2.1c7.6-0.3,8.9-4,13.7-2.8c5.5,1.3,7.6,7.2,10.3,6.2c1.7-0.6,0.9-3,3.1-4.9c3.4-3,10.4-1.9,15,0
		c2.4,1,3.6,2.1,5.2,1.5c2.3-0.9,1.6-4.1,3.9-5.4c2.5-1.4,5,1.7,12.1,3.1c4.1,0.8,4-0.1,8.3,0.8c6.3,1.2,6.5,3.2,11.4,3.9
		c3.8,0.6,3.9-0.6,11.9-1c6.6-0.4,9.9-0.5,11.4,1.3c2.4,3-1.3,8.9,0.3,9.8c0.9,0.5,2.2-1.3,5.2-2.8c3.8-1.9,7.5-1.7,11.6-1.5
		c4.6,0.2,3.8,1,10.1,1.5c4.5,0.4,5.9,0.1,8,1.3c3,1.7,3.8,4.5,4.9,4.1c1.3-0.4-0.2-4,1.8-6.6c2.2-2.9,7.2-2.6,12.4-2.3
		c2.4,0,4.9,0.4,7.2,1.2c2.7,1,3.5,2,6,2.3c1.9,0.2,3.8-0.1,5.6-0.8c3.5-1.5,3.7-3.8,6.6-4.3c1.8-0.3,1.9,0.6,4.3,0.6
		c3.1-0.1,6-1.5,7.9-3.9c1.8-2.2,1.9-4.3,2.7-4.3c0.6,0,0.8,1.3,1.7,4.6c0.9,3,1.6,5.5,2.1,5.4s-0.2-2.6,1.2-5c1.4-2.4,3-1.7,6.4-5
		c1.7-1.7,2.3-2.9,3.7-2.9c1,0.1,1.9,0.5,2.7,1.2c1.5,1,1.5,1.7,2.3,2.1c1.5,0.8,2.9-0.7,6.4-1.9c2.7-0.9,5.2-1.8,7.7-1
		c2,0.7,2.2,1.9,4.7,2.7c1.5,0.4,3.1,0.6,4.6,0.4c4.1-0.5,6.9-3.7,10.5-7.7c4.7-5.5,5.2-8.2,8.5-10.1c1.3-0.6,2.4-1.4,3.3-2.5
		c1.4-1.8,1.3-3.5,2.3-3.7s1.4,1.1,3.3,2.5c0.8,0.6,3.8,2.7,7,2.1c1.2-0.3,2.3-0.8,3.3-1.5c2.4-1.3,4.4-3.1,5.9-5.3
		c0.5-0.8,1-1.7,1.3-1.6s-0.3,2.5,0.4,2.9c0.7,0.4,2.4-2.3,3.2-1.9c0.4,0.2,0.4,1,0.4,2.2c0,1.7,0.2,3.5,0,5.2
		c-0.2,2.6,0.1,1.8-0.2,7.8c-0.2,5.7-0.5,6.1-0.8,13.3c-0.2,3.9-0.1,4.2-0.3,6.7c-0.2,2.4-0.4,4.4-1,8.7c-0.8,6.1-1.3,9.2-1.8,12.5
		c-0.3,2-1.2,6.5-2.5,12.2c-1.5,6.2-2.8,11.9-5.3,18.8c-2,5.5-3.9,9.3-6,13.7c-1.2,2.5-5,10.2-11,19.5c-2.6,4.1-4.4,6.9-7.3,10.5
		c-1.5,1.8-2.1,2.5-4.8,5.8c-2.7,3.4-4.7,6-5.5,7c-3.8,5-3.1,4.4-6,8.2c-1.2,1.5-2.1,2.7-3.3,4.7c-1.1,1.8-1,2-2,3.5
		c-1.2,1.8-2.3,3-3.8,4.7c-1.8,2-2.8,3-4,4c-2.5,2-5,3-8.2,4c-7,2.2-13,3.2-16.3,3.7c-5.2,0.8-8.1,1.2-13.8,1.8
		c-4.7,0.5-10.6,1-24.5,1.7c-7.9,0.4-15.7,0.8-26.7,1c-11.1,0.2-18,0.4-27.5,0.2c-9.8-0.2-11.2-0.6-28.3-1.3
		c-6.9-0.3-9.5-0.3-19.3-0.7c-24-0.8-35.9-1.2-39.8-1.5c-19.9-1.8-20-3.5-43.9-6.8c-0.8-0.1-7.2-1-14.8-3.8c-4.3-1.6-6.8-3-9-4.7
		c-1.3-0.9-3.8-2.9-6.2-6.2c-1.6-2.2-1.7-3-3.7-5.8c-1.6-2.3-3.1-3.9-4.2-5c-5.6-6-12.7-12.8-15.8-16.2c-4.5-4.8-6.8-8.8-11.3-16.8
		c-9.4-16.4-13.3-30.9-15.3-38.8c-3.1-11.9-4.1-20.8-4.3-22.8c-0.7-6.2-0.7-12.1-0.7-23.5c0-16.4,0.7-41.4,0.7-45.7c0-1.9,0-2.9,0-3
		c-0.1-2.7-0.4-3.3,0-3.7c1-0.9,4.6,1.6,6.2,2.8c1.8,1.4,3.5,2.8,4.5,5.2c0.8,1.9,0.3,2.7,0.2,7.3c-0.2,6.4-0.4,9.6,1,11.7
		c1.3,2,3.2,2.7,3.5,5.2c0.2,1.4-0.1,3.1-0.2,3.2c-0.2,1.1-0.5,1.3-1,3c-0.7,2-1,3.1-0.8,4c0.2,1.3,0.9,1.3,2,3.3
		c0.8,1.4,1.1,2.6,1.5,4.4c0.5,2.1,0.7,3.8,0.8,4.4c0.5,5.2,0.7,10.6,0.8,10.7c0.1,2.6,0.4,8.4,1.8,15.2c0.4,2.1,1.1,5,2.2,5.1
		c0.6,0,1.1-0.8,1.6-1.4c0.8-1.2,1.1-2.4,1.3-3.7c1-4.7,0.9-4,1-4.8c0.1-1.2,0.3-3.8-0.5-6.7c-0.7-2.5-1.5-2.4-2.6-5
		c-1-2.4-1.2-5-1.4-10c-0.2-3.4-0.3-5.1,0.1-6.8c0.2-1,0.8-4.1,3-7.3c1.3-1.9,1.8-1.8,2.7-3.4c1.2-2.1,1.4-4,1.6-6.2
		c0.5-6,0.5-10.6,0.5-10.6c0-1.1,0-4.2,0.1-10.4c0-2.2,0.1-4.3,1.4-6.1c0.3-0.4,1.2-1.1,3.1-2.5c4.4-3.3,2.7-1.8,5.4-3.8
		c1-0.7,1.6-1.2,2.6-1.4C44.6,367.2,45.6,367.5,46.3,367.8z"/>
		<path fill="#00596D" stroke="#000000" stroke-miterlimit="10" d="M341.8,338.5c4.4-0.8,8.8-1.7,13.3-2.5c1.1,0.9,2.1,1.4,2.8,1.6
		c0.7,0.2,1.1,0.3,1.6,0.2c0.6-0.2,0.7-0.6,1.7-1.3c0.3-0.2,0.9-0.7,1.5-0.9c1-0.3,1.8-0.1,2.7,0.1c1.2,0.2,2.2,0.2,4.1,0.2
		c2.8,0,3.8-0.5,4.9,0.3c0.7,0.5,1.2,1.2,1.2,1.2c0.7,1,0.5,1.8,0.9,1.9c0.5,0.1,1.1-0.8,1.4-1.2c0.3-0.4,0.8-1.1,0.8-2.2
		c0.1-1.2-0.5-1.6-0.2-2.3c0.3-0.5,0.8-0.8,1.3-0.9c1-0.4,1.8-0.3,2.3-0.3c1.8,0.2,3.2,0.3,4.5,0.3c2-0.1,2-0.6,3.8-0.5
		c1.2,0.1,2.2,0.4,3.1,0.7c0.6,0.2,1.1,0.4,1.6,0.7c0.3,0.2,0.7,0.5,1,0.9c0.5,0.7,0.4,1.3,0.4,2.8c0,0.1,0.1,1.2,0.2,3.5
		c0.1,1.1,0.1,1.6,0.2,2.8c0.2,2,0.2,3.3,0.4,6.2c0.3,4.4,0.4,6,0.6,9c1.1,17,1.3,33.1,1.6,35.2c0,0.4,0.1,0.9,0.1,1.9
		c0,0.7,0,0.9-0.1,1.1c-0.2,0.3-0.4,0.6-1.3,1c-1.2,0.7-1.8,1-2.1,0.8c-0.7-0.4,0.3-3-0.2-3.2c-0.4-0.2-1.5,1.6-2.5,2.9
		c-1.3,1.6-4,5.1-7.6,5.6c-4.3,0.6-9-3.2-9.6-4.3c-0.1-0.1-0.2-0.5-0.6-0.6c-0.6-0.3-1.2,0.2-1.6,0.3c-2,0.9-5.1-2-5.4-2.2
		c-0.7-0.6-2.2-2-2.5-4.1c-0.2-1.5,0.3-2.3,0.7-4.2c0.2-1,0.3-2.2,0-6.3c-0.8-8.4-1.1-12.6-3.6-16c-1.8-2.5-3.5-3.3-4-3.5
		c-1.8-0.8-2.6-0.3-5.1-0.7c-1.6-0.3-4.6-0.8-7.2-3.1c-0.5-0.4-2.8-2.6-3.4-5.8c-0.1-0.3,0-1.6-0.2-3.5c-0.1-1.2-0.1-1.5-0.3-2
		c-0.2-0.6-0.5-1.2-1.6-2.6c-1.3-1.6-1.2-1.3-2.1-2.5c-1.3-1.7-1.3-2.1-2.3-2.9c-0.4-0.3-0.7-0.5-0.7-0.7c0-0.3,0.6-0.5,3-0.7
		C339.7,338.7,340.6,338.6,341.8,338.5z"/>
		<path fill="#BFE3FF" stroke="#000000" stroke-miterlimit="10" d="M330.8,318.8c2.3,0,4.7-0.1,7-0.1c7.2,0,13.5,0,18.3,0
		c15.3-0.1,23-0.2,24.8-0.4c2.6-0.3,5.2,0,7.8-0.3c0.1,0,2.9-0.3,5,0.9c0.4,0.2,0.6,0.4,0.7,0.6c0.7,0.8,0.6,1.8,0.8,3.6
		c0.1,1.3,0.1,0.4,0.3,2.6c0.7,6.3,0.1,5,0.5,6.9c0.1,0.4,0.3,1.2,0,1.4c-0.2,0.1-0.6-0.1-1.4-0.6c0,0-0.9-0.5-1.8-0.9
		c-1-0.4-1.8-0.3-3.2-0.1c-0.7,0.1-2.7,0.3-4.6,0.3c-2.1,0-3.1-0.3-5.2,0c-0.2,0-0.8-0.1-1.1,0.2c-0.3,0.4-0.1,0.9-0.1,2.1
		c0,0.5,0,1.4-0.3,2.3c-0.4,0.9-1.2,2-1.8,1.9c-0.6-0.2-0.2-1.6-1.3-2.5c-0.5-0.4-1.1-0.5-2.3-0.6c-1.1-0.1-1.5,0-2.8,0
		c-1.6,0-3.7,0.1-5.7-0.3c-0.3,0-0.7-0.1-1.3-0.1c-0.2,0-0.9,0.1-2.1,0.9s-1.1,1.1-1.7,1.3c-0.6,0.2-1-0.1-2.8-0.9
		c-2.4-1-3.2-1-3.6-1c-0.9,0-1.6,0.3-2,0.5c-2.2,0.9-4.7,1.3-9.6,2.1c-3.4,0.5-5.1,0.8-6.7,0.5c-2.3-0.5-2.1-1.2-5.6-2.1
		c-2.1-0.6-3.2-0.6-4.8-1.7c-0.6-0.4-1.6-1.1-2-2.3c-0.4-1.2,0.1-1.6-0.3-2.6c-0.6-2-3.6-2.8-4.4-3c-2-0.5-2.2,0.1-5.2-0.3
		c-0.7-0.1-2-0.4-4.4-1c-3.3-0.8-3.4-0.9-4.4-1.1c-2-0.3-2.6-0.1-4.1-0.2c-0.1,0-0.9,0-1.4-0.1c-0.9-0.1-1.6-0.4-3.7-1.4
		c-2.9-1.4-3-1.7-3.1-2c-0.2-0.9,0.3-2,1.1-2.4c0.4-0.2,0.7-0.1,1.1-0.1c0,0,1.7,0.2,4.3,0.4c0.5,0,1,0.1,2.7-0.1
		c4.5-0.3,8.3-0.9,11.6-1.1c1.7-0.1,4,0,8.6,0.2C324.7,318.4,328.2,318.6,330.8,318.8z"/>
		<path fill="#00587D" stroke="#000000" stroke-miterlimit="10" d="M374.7,399.6c-1.5,0.1-3-0.2-4.4-0.8c-1.9-0.8-3.5-2.3-4.4-4.2
		c-1.1-2.6,0.4-4,0.5-8.5c0-2.2-0.3-4.4-0.8-6.5c-1.6-8.7-2.4-13-4.8-15c-3.8-3.1-7.3-0.2-12.9-4.3c-1.9-1.2-3.4-2.8-4.4-4.8
		c-1.5-3.5,0.2-5.5-1.8-8.8c-0.9-1.4-1.3-1.3-3.2-3.9c-1-1.5-1.4-2.2-2.4-2.9s-1.5-0.5-3.5-1.1c-2.2-0.6-2.2-1-5.1-2.1
		c-3.5-1.3-3.5-0.8-4.2-1.5c-2-1.8-0.7-4.5-2.9-6.6c-0.9-0.7-1.9-1.3-3-1.5c-3-0.9-4.2,0.3-7.4-0.1c-2.1-0.3-1.8-0.8-4.8-1.5
		c-3.3-0.8-4.5-0.4-7.2-0.8c-3.7-0.6-6.8-2.6-7.3-2.9c-9.6-6-199.8-7.7-206.3-7.9c-2.9-0.1-4.4,0-7.4,0.3c-6.5,0.5-8.6,1.4-9.6,1.8
		c-2,0.9-4.2,1.9-5.7,4.1c-3,4.4,0,9-2.1,16.8c-0.4,1.4-0.7,2.5-1.4,4c-1.1,2.3-2.1,3-3,5.1c-0.3,0.7-0.6,1.6-0.8,3.8
		c-0.8,6.4,0.5,7.6-0.5,11.4c-0.4,1.4-1.4,5-4.4,6.2c-1.3,0.5-2.6,0.4-3.5,0.2c4.9,3.3,5.6,4.6,5.4,5.2c-0.4,1-3.4-0.3-6.1,1.4
		c-2.3,1.5-2.9,4.4-3.2,6.1c-0.5,1.9-0.3,3.9,0.5,5.7c0.9,1.6,1.9,1.3,3.6,2.8c0.7,0.7,1.5,1.6,4.1,8.8c1.6,4.5,1.6,5.1,2.6,6.2
		c2.2,2.6,4.1,1.9,6.2,3.6c5.2,4.3,0.4,13.9,4.9,17c2.4,1.7,6.2,0.5,8.5-0.3c5-1.6,4.9-4.2,8.5-4.9c3.9-0.8,5.2,2,13.4,4.6
		c3.6,1.1,7,2.2,11.4,2.1c7.6-0.3,8.9-4,13.7-2.8c5.6,1.3,7.6,7.2,10.3,6.2c1.7-0.6,0.9-3,3.1-4.9c3.4-3,10.4-1.9,15,0
		c2.4,1,3.6,2.1,5.2,1.5c2.3-0.9,1.6-4.1,3.9-5.4c2.5-1.4,5,1.7,12.1,3.1c4.1,0.8,4-0.1,8.3,0.8c6.3,1.2,6.5,3.2,11.4,3.9
		c3.8,0.6,3.9-0.6,11.9-1c6.6-0.4,9.9-0.5,11.4,1.3c2.4,3-1.3,8.9,0.3,9.8c0.9,0.5,2.2-1.3,5.2-2.8c3.8-1.9,7.5-1.7,11.6-1.5
		c4.6,0.2,3.8,1,10.1,1.5c4.5,0.4,5.9,0.1,8,1.3c3,1.7,3.8,4.5,4.9,4.1c1.3-0.4-0.1-4,1.8-6.6c2.2-2.9,7.2-2.6,12.4-2.3
		c2.4,0,4.9,0.4,7.2,1.2c2.7,1,3.5,2,6,2.3c1.9,0.2,3.8-0.1,5.6-0.8c3.5-1.5,3.7-3.8,6.6-4.3c1.9-0.3,1.9,0.6,4.3,0.6
		c3.1-0.1,6-1.5,7.9-3.9c1.8-2.2,1.9-4.3,2.7-4.3c0.6,0,0.8,1.3,1.7,4.6c0.9,3,1.6,5.5,2.1,5.4s-0.2-2.6,1.2-5s3-1.7,6.4-5
		c1.7-1.7,2.3-2.9,3.7-2.9c1,0.1,1.9,0.5,2.7,1.2c1.5,1,1.5,1.7,2.3,2.1c1.5,0.8,2.9-0.7,6.4-1.9c2.7-0.9,5.2-1.8,7.7-1
		c2,0.7,2.2,1.9,4.6,2.7c1.5,0.4,3.1,0.6,4.6,0.4c4.1-0.5,6.9-3.7,10.5-7.7c4.7-5.5,5.1-8.2,8.5-10.1c1.3-0.6,2.4-1.4,3.3-2.5
		C373.9,401.5,373.8,399.9,374.7,399.6"/>
		<path fill="#006393" stroke="#000000" stroke-miterlimit="10" d="M33.6,261.6c1.5-1.5,2.8-2.7,3.9-3.7c2.2-1.9,3-2.5,4.3-2.8
		c1.2-0.3,2.2-0.2,2.9-0.1c0.5,0.6,1.3,1.6,1.8,2.9c0.5,1.2,0.4,2,0.6,3c0.3,1.7,0.7,1.8,3,6.8c1.3,2.8,1.5,3.5,2.5,3.9
		c1.2,0.5,2.5-0.1,3-0.3c1.7-0.7,1.6-1.6,3.3-2.6c0.6-0.3,2.1-1,3.9-0.8c0.4,0.1,1.4,0.2,3,1.4c1.4,1,2.3,2,4.5,4.9
		c2.4,3.2,2.5,3.3,3.3,4.3c2.3,2.6,4.2,3.9,4.3,3.9c1.7,1.1,2.5,1.7,3.4,1.8c0.2,0,0.7,0.1,1.1,0.5c0.3,0.3,0.2,0.7,0.4,1.4
		c0,0,0.2,0.8,0.4,1.6c0.6,2.3,0.8,3.4,1.8,24.4c0,0.7,0,0.8,0,0.8c0.1,0.6,0.2,0.8,0,0.9c-0.2,0.2-0.9-0.2-1.1-0.3
		c-0.8-0.4-1.5-0.4-6,0.2c-2.1,0.2-3.2,0.4-3.5,0.4c-2.7,0.4-4.2,0.6-5.9,1.3c-1.9,0.7-4.5,1.6-6.2,4.1c-1.2,1.7-1.3,3.5-1.6,6.5
		c-0.3,3.2,0.2,3.7-0.1,7c-0.1,1.1-0.3,3-1.1,5.4c-0.7,2.1-1.1,2.3-2.6,5.8c-1.3,2.9-2,4.4-2.1,5.5c-0.4,2.9,0.8,3.3,0.6,7.3
		c0,1.5-0.1,3.5-1.3,5.8c-0.5,1-1.3,2.6-3,3.6c-1.4,0.9-2.8,1-3.9,1.1c-2.6,0.3-2.9-0.5-4.5,0c-1.5,0.5-1.3,1.2-3.8,2.9
		c-2,1.3-2.3,1-3.9,2.3c-0.7,0.5-2,1.6-3,3.4c-1.2,2.3-1.2,4.5-1.1,5.9c0.4,13.9-0.9,10.7-0.3,18.6c0.1,1.6,0.4,3.8-0.8,6
		c-0.3,0.6-1.1,1.6-2.6,3.6c-1.8,2.3-2.2,2.7-2.8,3.8c-0.4,0.9-0.9,1.9-1.3,4c-1,5.3-0.4,9.9-0.3,10.9c0.2,1.3,0.7,4.3,2,7.8
		c1.2,3.1,1.5,2.8,2.1,4.9c0.3,1,1.3,5.1-0.1,9.5c-0.3,0.9-0.2,0.3-2,4.3c-0.7,1.5-0.9,2.1-1.4,2.1c-1.1,0.1-2.1-3.1-2.1-3.4
		c-0.5-1.7-0.5-3.1-0.5-3.4c0-3.2-0.5-2.3-1.1-10.1c-0.1-1-0.2-3.7-0.5-9.1c-0.4-8.1-0.4-8.7-1-10.1c-1.3-3.2-2.7-3.6-3.1-6.6
		c-0.4-3.2,0.4-5.6,0.4-5.6c0.5-1.5,1-1.9,1-3.1c0-1.1-0.5-1.7-1.8-4c-1.1-2-1.7-3-2-4c-0.6-1.8-0.5-3.1-0.4-5.6
		c0.3-5.9,0.4-8.8-0.1-10.9c-1-3.7-2.9-5.3-3.5-5.8c-0.4-0.3-0.8-0.5-1.8-1c-3.2-1.7-4.5-1.8-5.3-3.1c-0.3-0.5-0.4-1-0.5-1.7
		c-0.2-1.1-0.1-1.9,0-2.7c0.1-1.3,0.1-2.6,0.3-3.9c0.4-3.7,0.5-7.4,0.9-11.1c0.7-7.6,1-13.4,1.8-23.3c1.8-20.3,2.6-21.1,3.9-36
		c0.4-5.2,1.7-10.3,2.3-15.5c0.2-1.9,0.5-5.2,1.3-5.3c0.5,0,1,1.3,1.5,2.8c0.6,1.7,1.4,4,1.4,7.3c0,2.7-0.7,4.1-0.3,4.3
		c0.7,0.3,2.8-2.9,4.1-4.9c3.7-5.5,5-7.6,5-7.6c1-1.6,1.8-3,2.9-2.9s1.8,1.9,2.4,1.8c0.4-0.1,0.4-1.1,0.5-2.1c0.3-2.9,1.2-5,1.6-5.9
		C31.1,264,31.9,262.8,33.6,261.6z"/>
		<path fill="#004251" stroke="#000000" stroke-miterlimit="10" d="M2.5,354c1.7,1,4.1,2.2,7,3.3c1.1,0.4,2.2,0.8,3.2,1.1
		c1.4,0.4,4.6,1.4,8.9,2.1c1.6,0.2,5.3,0.8,8.8,0.8c1.4,0,2.9,0.1,4.3,0.2c0,0,0.4,0,2.6,0.4c0.9,0.1,1.6,0.3,1.8,0.8
		c0.1,0.2,0,0.3,0,0.4c-0.4,1.5-1.7,2.7-1.7,2.7c-2.8,2.4-2,2.4-3.5,3.3c-1.8,1.2-4.8,2.3-7.2,1.8c-0.2,0-0.8-0.2-1.7-0.1
		c-0.7,0-1.9,0.1-2.7,0.8c-0.6,0.6-0.4,1-1,2.7c-0.4,1.2-0.7,1.8-1,2.2c-1,1.1-3.3,0.6-7.7-0.5c-1.3-0.3-3.1-0.8-5-1.6
		c-1.2-0.5-1.3-0.6-2.8-1.3c-0.4-0.1-1-0.4-1.7-0.8c-1.3-0.8-1.5-1.2-1.5-1.4c-0.1-0.2-0.1-0.5-0.1-1c0-0.2,0-0.4,0-0.8
		c0-0.8,0.1-1.4,0.1-1.6c0.2-2,0.8-9.3,0.9-11C2.4,356,2.4,355.1,2.5,354z"/>
		<path fill="#7F9CFF" stroke="#000000" stroke-miterlimit="10" d="M296.4,278.3c2.1,1,5.5,2.4,9.8,2.7c3,0.2,5.5-0.1,7.4-0.5
		c0.4-0.3,0.9-0.8,1.3-1.5c0.8-1.7,0-2.9,0.3-4.8s1.6-3.1,2.8-4.3c2.2-2.2,4.8-2.8,5.8-3c3.7-0.8,4.7,1,7-0.3c1.9-1,2.3-2.6,4.5-2.9
		c1-0.1,1.8,0.1,2,0.2c1.7,0.5,2.6,2,3.8,4c1.1,2,1.7,3.6,2,4.8c0.7,2.2,1,3.4,0.9,4.8c-0.1,1.1-0.4,1.6,0,2.2
		c0.5,0.7,1.4,0.5,3.6,0.8c1.7,0.2,3.7,0.5,5.6,1.8c1,0.7,0.9,0.9,1.9,1.4c1.4,0.7,2.8,0.8,3.6,0.8c1.8,0.1,2.2-0.3,3.4,0.2
		c0.5,0.2,1.2,0.4,1.6,1.1c0.5,0.8,0.2,1.4,0.2,3.2c0,0.2,0,1.6,0.3,3.1c0.2,1,0.4,2.2,1.2,3.5c0.2,0.4,0.9,1.4,2.1,2.4
		c1,0.8,1.7,1.4,2.5,1.3s1.1-1,2.1-2.9c0.9-1.9,1.9-3.7,2.9-5.5c1.5-2.9,1.3-2.3,2.1-3.8c0.5-0.9,1.1-2.1,2.4-4.3
		c0.5-0.9,0.9-1.5,1.6-1.7c0.8-0.1,1.5,0.4,1.9,0.8c1.8,1.6,2.8,3.4,3.9,5.2c2.2,3.6,2.8,4.4,3.7,6.5c0.4,0.9,0.6,1.5,0.7,1.8
		c0.5,1.4,1.6,4.8,2.6,13.8c0.9,7.5,0.3,7.3,0.9,8.6c0.1,0.2,0.4,1,0.1,1.2c-0.4,0.4-1.7-0.7-3.8-1.1c-1.2-0.2-2.1,0-2.8,0.1
		c-0.4,0.1-5.8,0.2-16.4,0.6c0,0-3.8,0.1-10,0.3c-18.5,0.4-40.2-0.7-49-0.8c-0.2,0-0.5,0-0.9,0c-4.1,0.1-5.5,0.7-9.3,1.3
		c-5.4,0.7-4.9-0.3-9.3-0.3c-0.2,0-0.9,0-1.3-0.4c-0.5-0.5-0.3-1.4-0.3-1.8c0.8-3.8,4.1-25.9,4.8-36.3
		C296.4,279.6,296.4,278.8,296.4,278.3z"/>
</g>
	<g>
	<path fill="#41FFFC" stroke="#000000" stroke-miterlimit="10" d="M349.1,270.2c0.2,0.9,4.5,0.3,13.3,0.7c3.8,0.3,7.6,0.4,11.4,0.3
		c3.7-0.2,6.5-0.6,6.5-1s-2.9,0.1-6.4-1.5c-1.8-0.9-3.6-2-5.1-3.3c-2.2-1.6-3.5-2.9-5.3-2.8c-0.7,0-1.3,0.2-1.9,0.5
		c-0.8,0.5-0.9,1.2-1.5,2c-0.8,1-1.9,1.7-3.2,2.1c-1.7,0.7-2.1,0.2-4,0.7S349,269.6,349.1,270.2z"/>
		<path fill="#4FA8FF" stroke="#000000" stroke-miterlimit="10" d="M291.7,239.1c6.2-0.1,11.2-0.4,14.7-0.6c0,0,17.2-1.2,23.7-0.9
		c1.1,0,2.1,0.1,3.3,0.2c7.6,0.7,8,1.8,16.4,2.3c7.3,0.5,7.4-0.3,14.9,0.4c4.2,0.4,7.6,0.9,7.9,0s-2-1.4-4.7-4.6
		c-2-2.5-2.6-4.5-4.8-5.6c-0.8-0.5-1.8-0.7-2.8-0.5c-0.8,0.1-1,0.5-1.5,0.5c-1.2,0-1.6-1.8-3-3.2c-1.2-1.2-2-0.9-5.9-2.2
		c-3.4-1.1-2.8-1.4-5.3-2.1c-2.9-0.9-6-1.8-8.4-0.4c-1.4,0.8-1.8,1.9-2.3,1.6c-1.1-0.4,1-5.1-0.8-6.7c-2-1.9-6.7,2.6-10.7,0.5
		c-2.2-1.2-2-3.1-4.1-3.5c-2.6-0.5-4.5,2.2-6,1.4c-1.2-0.7-0.6-2.6-1.5-3c-1.5-0.6-2.9,3.7-6.9,4.7c-2.1,0.5-3-0.4-5.4,0.6
		c-0.4,0.1-0.3,0.1-3.3,1.8c-1.3,0.9-2.8,1.6-4.3,2.1c-0.6,0.2-1.1,0.3-1.3,0.3c-0.8,0.1-1.5,0.2-2,0.2c0.2,2.9,0.8,6.4,1.8,10.1
		C290.2,234.9,290.9,237.1,291.7,239.1z"/>
		<path fill="#06FBFF" stroke="#000000" stroke-miterlimit="10" d="M283.3,202.2c5.1-0.1,9.5-0.1,13-0.1c3.4,0,7.1,0,12.1,0.2
		c2.5,0.1,5.1,0.2,8,0.3c6.2,0.3,14,0.8,24.1,2.2c4.6,0.6,8.8,1.2,14.5,2.5c9,1.9,11.9,3.4,12.3,2.7c0.7-1.3-9.6-11.8-21.4-11.5
		c-4.7,0.1-7.8,1.9-12.4,0c-4-1.7-3.6-3.8-7.7-5.3c-2.4-0.9-2.7-0.2-11.9-0.9c-4.3-0.3-5.3-0.6-6.3-1c-3.5-1.5-3.8-3.7-6.2-4
		c-2.5-0.3-3.9,2.2-7.5,3.5c-2.3,0.8-6,1.2-11.6-1.5c0.6,1.8,1.3,4.3,1.4,7.3C283.7,198.7,283.5,200.6,283.3,202.2z"/>
</g>
	<path fill="#93FFD9" stroke="#000000" stroke-miterlimit="10" d="M50.2,165.9c-1,0.3-1.4,0-2.6,0.1c-1.3,0.2-2.6,0.8-3.6,1.8
	c-1.9,1.5-1.8,2.6-3.7,5.5c-2.4,3.6-4.2,4.5-3.8,5.4s3.2,1.3,5.1,0.4c0.8-0.4,1.4-0.9,2.2-0.8c0.7,0.2,1.3,0.7,1.6,1.4
	c1.7,2.3,9.4-0.4,12.2-1.2c8.4-2.4,8.7,1,22-1.1c5-0.8,5.5-1.4,9.9-1.7c5.3-0.4,6.9,0.2,13.4,0.4c8.9,0.3,8.2-1,17-0.7
	c3.4,0.1,4.2,0.3,13.9,0.8c5.7,0.3,8.4,0.3,8.4,0s-1.7-0.5-5.6-1.8c-4.8-1.5-5.6-2.3-7.4-1.8s-2.5,1.4-3.7,1
	c-0.8-0.4-1.4-1.1-1.9-1.8c-0.3-0.4-0.5-0.9-0.7-1.5c-0.8-2-3.2-3.5-5.4-4.8c-1.5-1-3.2-1.9-4.9-2.6c-1-0.3-2.1-0.6-2.5-1.5
	s0.2-1.5-0.1-2.5c-0.6-1.6-3.2-2.2-4.4-2.4c-1.5-0.3-3.1-0.3-4.6-0.2c-6.3,0.4-9.4,0.5-11.9-0.8c-1.9-1-2.5-2.1-4.3-2.1
	c-1.1,0-1.3,0.5-4,1.6c-0.8,0.3-2.3,0.9-5.4,1.9c-1.1,0.3-2.2,0.7-3.2,1.2c-1.4,0.8-1.7,1.5-3.9,3.9c-3.4,3.7-4.2,3.8-4.6,3.8
	c-1.5,0-1.8-1.7-3.5-1.5c-1.1,0.2-2.1,0.7-2.9,1.5c-0.7,0.6-0.7,0.8-1.1,0.9c-1.3,0.2-2-2.6-3.5-2.5C51.9,164,51.9,165.3,50.2,165.9
	z"/>
	<path fill="#9ED2FF" stroke="#000000" stroke-miterlimit="10" d="M114.7,216.5c1,0.2,2.5,0.4,4.3,0.5c0.9,0,1.3,0,3.9-0.2
	c3.6-0.2,5.4-0.4,6.7-0.3c2.4,0.1,3.1,0.4,5.2,0.1c1.6-0.2,3.2-0.7,3.2-0.9s-2.4,0-6.1-0.4c-2.1-0.2-4.2-0.6-6.3-1.2
	c-2.2-0.5-4.3-1.3-6.3-2.3c-0.7-0.4-1-0.6-1.8-0.9c-1.5-0.6-3.1-1-4.8-1c-9,0-12.4,0.1-13.7,0.2c-1.1,0.1-1.8,0.4-3,0.1
	c-0.7-0.2-1.3-0.5-1.9-0.2c-0.5,0.2-0.6,0.6-1,0.9c-0.8,0.7-2,0.2-3.7-0.2c0,0-2.3-0.5-8-0.7c-0.6,0-1.2,0-1.2,0c-0.6,0-0.8,0-1.3,0
	c-0.6,0-1,0-1.8,0c-1.3,0-2.3-0.1-2.8-0.1c-2-0.1-3.6-0.3-3.9-0.3c-3.2-0.3-8.7-0.5-11-0.5c-8.6-0.2-15.6,0.6-15.6,0.6
	s2.2-0.1,5.7,0.1c1.8,0.1,3.2,0.2,4,0.3c4,0.4,4.6,0.9,8,1.1c1.1,0.1,2.3,0.2,3.9,0.1c1.8-0.1,2.3-0.2,4-0.2c1.6,0,2.8,0.1,3.7,0.3
	c2.1,0.3,2.4,0.5,5.3,1c1.3,0.2,2,0.3,3,0.4c2.1,0.2,3.1,0.1,5,0.5c0.4,0.1,0.7,0.2,1.4,0.4c2.6,0.8,3.2,1.2,4.3,1.4
	c1.9,0.4,3.3,0,4.2-0.1C98.7,214.5,103.5,214.6,114.7,216.5z"/>
	<path fill="#67FFA7" stroke="#000000" stroke-miterlimit="10" d="M89.1,239.5c-4.4-0.1-7-1.4-8.6-2.6c0,0-5.4-3.9-6.5-3.6
	c-0.4,0.1-0.3,0.3-0.7,0.4c-1.6,0.5-2.6-1.8-5.4-2.7c-1.6-0.5-1.5,0.1-3.2-0.5c-1.7-0.5-3.1-1.4-4.2-2.8c-0.4-0.7-0.8-1.4-1.3-2
	c-0.8-1.1-2-1.9-3.3-2.3c-0.8-0.1-1.6-0.1-2.3,0.1c-4.2,0.8-4.8,2.2-6.8,2c-0.9-0.1-0.7-0.3-4.6-2.4c-3.8-2-4.6-2-5.2-1.9
	c-1.7,0.3-2.9,1.8-3.6,2.8c-1,1.2-0.8,1.6-1.8,3.4c-1.3,2-2.8,4-4.4,5.9c-1.5,1.8-2.2,2.7-2.6,3.1c-2.8,3-4.5,3.7-4.3,4.3
	c0.3,1.1,6.1,0.2,11.7-0.3c2.9-0.3,10.3-0.3,25.2-0.4c11.4-0.1,9,0.1,13.4,0c1.2,0,6-0.2,9.8,0.1c2,0.1,4.8,0.5,8.1,1.3
	C88.8,240.7,89,240.1,89.1,239.5z"/>
	<path fill="#A2F8FF" stroke="#000000" stroke-miterlimit="10" d="M117.6,240.6c1.4-0.1,3.1,0,5,0.3s3.6,0.8,4.9,1.2
	c1.9,0.9,4.1,1.3,6.2,1.1c1.9-0.3,3.4-1.2,3.3-1.4s-1.5,0.3-3.4-0.3c-0.9-0.3-1.7-0.7-2.5-1.3c-0.9-0.8-0.9-1.1-1.7-1.7
	c-0.8-0.6-1.8-1-2.8-1.2c-2-0.5-2.2,0-3.7-0.5s-1.5-1.1-2.9-1.4c-0.9-0.1-1.8-0.1-2.8,0l-2.2,0.1c-3,0-22.2,0.2-28.3-0.7
	c-6-0.8-9-1.2-9.4-1.3s-1.7-0.5-1.8-0.3c-0.1,0.2,0.6,0.7,2.1,1.7c3.1,2,4.7,3.1,6,3.5c2.2,0.7,4.3,0.9,5,1c0.2,0,0.4,0,0.6,0
	C94.7,239.8,104.7,240.3,117.6,240.6z"/>
	<path fill="#8C4B00" stroke="#000000" stroke-miterlimit="10" d="M274.4,356.8c-0.1,0.7-0.2,1.9-0.4,3.3c-0.2,2.1-0.3,2.4-0.6,2.8
	c-0.9,1-2.7,0.5-5.2,0.2c-0.5-0.1-5.2-0.5-9.4,0.8c-3.7,1.1-6.2,3.3-6.2,3.2c-0.1-0.1,5.2-3.2,4.9-3.9c-0.3-0.5-3.9,0.5-5.8,1.1
	c-2.7,0.9-3.9,1.6-4.3,1.2c-0.4-0.5,0.6-2,1.7-3.1c1.4-1.4,2.5-1.4,2.6-2c0.1-1.5-6.9-3-6.8-3.7c0.1-0.5,4.9-0.9,10.3,0.3
	c2.5,0.6,4.3,1.3,5.3,0.4c1.2-1.1,0.2-3.8,1.3-4.2c0.4-0.2,0.9,0.1,1.5,0.4s2.4,0.9,6.1,2C270.7,356,272.3,356.4,274.4,356.8z
	 M252,360.6c5.6,0.8,11.3,1.7,16.9,2.5 M266.6,355c-0.2,0.6-0.6,1.7-0.3,3c0.2,1,1,2.8,2,2.8c1.1,0,1.8-1.9,1.8-2.1
	c0.4-1.1,0.2-2.1,0.1-2.6c0.1,0.5,0.3,1.5-0.1,2.6c-0.1,0.2-0.8,2.2-1.8,2.1c-1,0-1.6-1.9-1.8-2.7
	C266.1,356.8,266.4,355.6,266.6,355z"/>
	<path fill="#995B00" stroke="#000000" stroke-miterlimit="10" d="M253.6,366.4c0.3-0.4,0.8-0.8,1.4-1.2c1-0.6,1.9-0.9,2.5-1
	c1.1-0.3,2.5-0.7,4.1-1c1.2-0.2,2.1-0.2,2.4-0.3c0.6,0,1.1,0,1.4,0c1.3,0,2.3,0.1,2.7,0.1c0.7,0.1,1.3,0.1,2,0.3
	c0.7,0.2,0.7,0.2,1.1,0.2c0.3,0,1.4,0.1,2.1-0.5c0.5-0.4,0.5-1,0.6-1.6c0.3-2.9,0.1-4.1,0.6-4.4c0.5-0.2,0.9,0.7,2.5,1.4
	c2.1,1.1,3.9,0.7,4.2,1.6c0.1,0.3-0.1,0.5-0.2,1c-0.4,1.6,0.7,3.3,2.1,5.5c0,0,1.2,1.9,1.4,2.9c0,0.2,0,0.5,0.2,1.1
	c0.1,0.6,0.2,0.6,0.2,0.8c-0.2,0.5-2.2-0.6-4.6-0.7c-0.5,0-3.1-0.1-5.3,1.4c-1.6,1.1-1.4,2-2.7,2.4c-1.5,0.4-3-0.4-4.6-1.3
	c-1.7-1-1.4-1.2-2.9-2c-0.7-0.4-2.8-1.5-5.5-1.4c-1.1,0-2.2,0.2-2.3-0.1c-0.1-0.3,0.9-0.5,1.1-1.4c0-0.1,0.2-0.7-0.1-1
	c-0.7-1.2-4.9,0.2-5-0.3C253,366.9,253.1,366.7,253.6,366.4z M278.3,359.5c-0.5,1.1-0.9,2-1.1,2.6c-0.4,1.3-0.7,2.4-1.7,3.5
	l-0.1,0.1c-1.5,1.4-4.4,0.8-5,0.7c-4.7-0.8-11,3.2-11,3.2s4.7-3.4,11-3.2c1.8,0.1,3.9,0.4,5.1-0.8c0.4-0.4,0.8-1.4,1.7-3.5
	C277.7,361,278.1,360.1,278.3,359.5z M275.4,365.8c-0.9,1-2.2,2.6-3.2,4.8c-0.7,1.5-1,2.9-1.2,4c0.2-1.1,0.5-2.5,1.2-4
	C273.2,368.4,274.5,366.8,275.4,365.8z M273.3,368.5c-1.2,0.5-2.7,1.2-4.3,2.4c-0.8,0.6-1.5,1.3-2,1.8c0.5-0.6,1.2-1.2,2-1.8
	C270.6,369.7,272.1,369,273.3,368.5z M279.3,360.6c0,0-1.1,2.7-0.4,5.5c0.5,2.3,1.9,4,1.9,4s-0.1-0.2-0.7-1.2
	c-0.3-0.7-0.7-1.5-0.9-2.6c-0.4-1.7-0.4-3.1-0.3-4.2C279.2,360.9,279.3,360.6,279.3,360.6z"/>
	<path fill="#F6FFD5" stroke="#000000" stroke-miterlimit="10" d="M253.5,213.4c-0.4,1.3-0.9,2.7-1.3,4c-0.7,2.5-1.1,4.5-1.5,6
	c0,0-0.7,3.2-1.9,7.5c0,0-0.1,0.5-0.6,1.8c-0.6,1.6-0.8,1.9-1.1,2.2s-0.4,0.4-0.6,0.6c0,0-0.1,0.1-0.1,0.2c0,0.3,0.1,0.8,0.1,1.5
	c0.2,2.3,0.6,6.6,1.7,12.9c0.6,3.5,0.6,2.8,1,5.1c0,0.2,0.8,5.1,1.1,9.9c0.5,9.8-1.3,18.6-2.5,24.3c-1,4.6-1.4,6.9-2,8.3
	c-0.1,0.3-0.5,1.1-0.6,2.2c-0.1,1,0,1.5,0,2.8c0,0.8,0,1.5-0.1,2.9c0,0.7-0.1,3.5-0.5,6.3c0,0.4-0.1,1.1-0.1,2.1
	c0,0.9,0.2,1.6,0.2,1.9c0.4,1.8,0.5,4.6,0.6,6.1c0,0,0.2,4.3-0.4,10.2c0,0.1-0.1,0.5-0.1,1c0,0.2,0,0.5,0.2,1.3
	c0.1,0.4,0.2,0.9,0.4,1.4c0.3,1,0.6,1.4,1,2.2c0.6,1.2,0.8,2,1,2.4c0.7,1.8,3.4,5.5,7.4,8.5c3.8,2.9,7.4,4.2,10.4,5.2
	c0.3,0.1,4.4,1.5,6.3,1.8c0.6,0.1,1,0.2,1.7,0.3c1,0.2,1.3,0.4,1.6,0.6c0.6,0.4,0.8,0.9,1,1.1c1,1.6,3.8,1.8,5.6,2
	c1.4,0.1,4.2,0.2,4.3-0.5c0.1-0.3-0.5-0.7-0.9-1s-1.8-1.7-4.5-4.7c-2.7-2.9-2.4-3-4-4.4c-1.3-1.1-1.8-1.3-2.7-2.3
	c-1.2-1.4-1.7-2.8-2.1-3.8c-2.3-6.6-4.2-12.3-3.3-19.3c0-0.4,0.4-1.4,0.2-2.8c-0.1-1.1-0.5-1.6-1.2-3.4c-1.5-3.6-1.6-4.7-2.6-5
	c-0.7-0.2-1.3,0.2-1.8,0.4c-1.4,0.8-1.7,2-3.7,7.5c-0.3,0.8-0.5,1.3-0.6,2s-0.1,1.1-0.3,2.2c-0.1,0.8-0.3,1.1-0.5,1.4
	c0,0-0.4,0.4-1,0.4c-1.4,0.1-3.7-3.9-4.5-8.5c-0.3-1.9-0.3-3.8-0.2-7.5c0.1-3.6,0.2-5.4,0.7-7.6c0.7-2.9,1.8-5.1,2.5-6.4
	c1.7-3.2,2.6-5,4.4-6.9c0.5-0.6,1.1-1.1,1.5-2.1c0.1-0.4,0.6-1.8-0.3-4.5c-0.8-2.3-1.5-2.7-2.4-4.7c-0.6-1.3-0.9-2.6-1.2-5.5
	c-0.9-9.6-0.1-16.9-0.1-16.9c0.6-5.5,1.8-11.9,3.2-15.2c0.1-0.3,0.8-2,1.6-4.3c0.1-0.2,0.8-2.3,1.1-3.4c0.9-3.3,0.1-4.2,0.4-8.4
	c0.4-5.1,2-8.6,2.5-9.5c0.2-0.4,0.8-1.6,1.8-3.1c2.3-3.6,4.7-5.5,4.3-5.9c-0.1-0.2-0.5,0-1.9,0.5c-2,0.6-3.1,1-4.5,1
	c-1.7,0.1-2.2-0.4-3.8,0c-0.7,0.2-1.2,0.4-1.4,0.5c-2.1,1-2.7,2.6-3.3,2.4c-0.7-0.2-0.5-2.1-1-2.2
	C255.8,208.4,255.1,209.3,253.5,213.4z M273.5,356.4c0.3,0.2,0.8,0.3,1.4,0.4s1.1,0.1,1.8,0c1.3-0.2,2.6-0.6,4-1.1h0.1
	c0.2-0.1,0.2-0.1,0.3,0c0.1,0,0.1,0.1,0.1,0.1c0.1,0,0.2-0.1,0.2-0.1c0-0.1-2.2,0.8-4.7,1.2c-0.4,0.1-1,0.1-1.8,0
	C274.3,356.7,273.8,356.5,273.5,356.4z M253,322.1c-0.7,3.3-1.4,9.2,0.9,15.9c2.2,6.5,6.2,10.7,8.4,13c1.6,1.7,3,2.9,4.1,3.8
	c-1.1-0.9-2.5-2.1-4.1-3.8c-2.2-2.3-6.2-6.5-8.4-13C251.6,331.3,252.3,325.4,253,322.1z"/>
	<path fill="#1B0039" stroke="#000000" stroke-miterlimit="10" d="M257.6,205.1c1.1-3,3.2-8.4,2.3-14c-0.4-3-1.6-5.3-3-7.6
	c-8.3-13.7-21.8-21.8-21-23.1c0.6-1,9.3,3.1,9.6,3.3c2.6,1.2,5.1,2.7,7.5,4.3c3,2.1,5.6,4.5,9.3,5.9c1,0.4,2.1,0.7,2.1,0.7
	c0.4,0.1,1.1,0.3,1.9,0.5c1.8,0.4,2.4,0.5,3.5,0.8c0.8,0.3,1.5,0.6,2.3,1c1.3,0.7,2.5,1.6,3.5,2.7c2.3,2.2,4.1,4.8,5.5,7.7
	c1.6,3.8,2.3,7.8,2.1,11.9c0,4.4-0.9,4.2-0.6,7.3c0.4,4.6,2.3,6.2,4.1,11.2c1.4,4,0.7,4.4,1.8,10.5c1.3,7,2.5,7.9,5.1,17
	c1.6,5.8,2.8,9.9,3.4,15.2c0.4,4,0.3,6.9-0.6,17.9c-1.2,13.5-1.8,20.3-2.3,23.7c-1.4,9-2.9,14.3-3,23.3c0,5.8,0.5,8.2,1,9.8
	c1.5,4.8,3.3,5.5,4.5,11c0.3,1.9,0.8,3.8,1.5,5.5c1,2,1.9,3.8,3.8,4.8c1,0.5,2,0.7,2.1,1.4c0.2,0.9-1,1.9-1.3,2.2
	c-2.3,2-5.6,1.8-8.4,1.7c-2.3,0-4.5-0.5-6.5-1.4c-2.2-1.1-4.1-2.7-5.5-4.7c-7.4-8.4-7.3-6.5-9.4-9.9c0,0-3.8-6.2-4.5-16.9
	c-0.2-3-0.3-4.4-0.1-5.3c0.2-0.8,0.2-1.6,0.1-2.4c-0.1-0.4-0.2-0.9-0.4-1.3c-2.1-4.8-3.1-7.2-3.9-7.2c-1.9-0.1-4.3,5.6-5.3,9.4
	c-0.7,2.5-0.8,4.4-1.8,4.6c-1.3,0.3-2.9-2.4-3.2-2.8c-1.4-2.3-2.1-5.1-1.9-11.9c0.2-5.7,0.3-8.6,1.1-10.7c1.5-4.1,3.6-8,6.4-11.4
	c1-0.9,1.6-2.1,1.9-3.5c0.4-2.5-1.2-4.7-1.6-5.3c-3.2-4.6-3.1-12.9-3-20.2c0.1-7.9,1.6-15.8,4.4-23.2c1-2.2,1.7-4.6,2.1-7
	c1-5.5-0.5-6,0.5-10.1c1.4-5.9,5.8-11.2,6.1-11.5c1-1.2,2.4-2.7,2.1-3.1c-0.3-0.4-1.4,0.5-3.5,1.1c-4.2,1.2-5.5-0.4-8.3,1.1
	c-2,1-2.9,2.7-3.6,2.3c-0.6-0.3-0.5-1.5-0.4-2.5C256.6,207.5,257.1,206.4,257.6,205.1z"/>
	<path fill="#FFFFFF" stroke="#000000" stroke-miterlimit="10" d="M271.4,186.8c0.8,0.9,1.5,1.9,2.1,2.9c0.5,0.9,0.8,1.9,0.9,2.9
	c0.1,1.4-0.3,2.1,0.2,2.7c0.4,0.5,1.2,0.7,1.8,0.4c0.8-0.6,0.2-2.6,0.1-3.1C275.4,188.8,271.5,186.6,271.4,186.8z"/>
	<path fill="#995B00" stroke="#000000" stroke-miterlimit="10" d="M240.3,359.8c-1.9-1.1-2.1-1.5-2.4-1.9c-0.3-0.4-0.1-0.4-0.7-1.4
	c-0.4-0.8-0.8-1.4-1.1-1.8c-0.3-0.1-0.7-0.3-1.3-0.3c-1.4-0.1-2.1,0.7-2.7,0.3c-0.6-0.4-0.1-1.6-0.7-1.9c-0.4-0.3-1.1,0.2-1.4,0.3
	c-1.8,1.1-3.9,1.7-5.8,2.7c-1.3,0.7-2.8,1-5.8,1.7c-3.8,0.9-4,0.6-7.7,1.5c-2.7,0.7-2.6,0.9-4.6,1.3c-1.9,0.4-2.7,0.4-2.9,0.9
	s0.5,1,3.5,3.6c2.3,2,3.5,3.1,4.4,3.2c2.2,0.2,2.8-1.9,6-2.5c1.5-0.3,2.6-0.1,4.7,0.3c3.5,0.7,6.9,2.3,8.3,3.3
	c0.3,0.2,0.8,0.5,1.7,1c1,0.5,1.4,0.7,1.8,0.5c0.4-0.2,0.5-0.8,0.5-1c0.4-2.7-5.3-7.1-4.7-8.2c0.2-0.3,0.7-0.1,2.9,0.2
	c3.9,0.5,5.6,0.6,7-0.1c0.3-0.1,1.4-0.6,1.3-1.2C240.7,360.1,240.5,359.9,240.3,359.8z M209.8,359.6c0.7,0.6,1.8,1.5,3.3,2.1
	c2.4,1,4.4,0.7,7.5,0.5c2-0.2,5.1-0.3,8.8-0.4c-3.8,0.1-6.8,0.3-8.8,0.4c-3.1,0.2-5.1,0.5-7.5-0.5
	C211.6,361,210.5,360.2,209.8,359.6z M212.4,359c1.2,0.4,3,1,5.3,1.1c2,0.1,3.1-0.1,5-0.3c2.3-0.3,7.8-0.9,13.7,0
	c2.1,0.3,4,0.8,4,0.8s-2-0.5-4-0.8c-5.8-0.9-11.4-0.3-13.7,0c-1.9,0.2-3.1,0.4-5,0.3C215.4,359.9,213.6,359.4,212.4,359z
	 M223.3,356.4c2.7,0.2,5,0.3,7.1,0.5c0.6,0.1,1.6,0.1,2.8-0.3c1.7-0.5,2.7-1.7,2.7-1.7s-1,1.1-2.7,1.7c-1.2,0.4-2.2,0.3-2.8,0.3
	C228.3,356.7,226.1,356.5,223.3,356.4z"/>
	<path fill="#F6FFD5" stroke="#000000" stroke-miterlimit="10" d="M211.9,358.1c3.3-0.5,6.7-1,10-1.5c4.7-1.3,7.8-3.3,9.7-4.8
	c0.9-0.7,2.5-2.2,5.5-5.3c3.2-3.2,4.9-4.8,5.6-5.9c0.4-0.7,2-3.2,2.7-9.7c0.9-8.1-1-9.7-0.5-19.1c0.2-4.2,0.6-4.5,0.6-8.5
	c0-1.3,0-5.8-1.1-11.7c-0.7-4-2-10.8-5.9-18.2c-1.7-3.2-2.3-3.5-3.2-6c-1.2-3.5-1.2-6.1-1.4-12.1c0,0-0.1-3.9-0.5-10.1
	c-0.1-2.4-0.7-10.2-3.2-18.3c-2.7-9-6.9-15.8-9-23.7c-0.4-1.7-0.7-3.3-0.9-4.8c-0.2-1.9-0.1-4,0-7.9c0.1-3.3,0.2-4.1,0.6-4.2
	c1-0.2,3.6,5.6,5,5.6c0.3,0,0.6,0,0.6,0c0.7-0.2,1-0.6,1.3-0.7c1-0.3,2.5,2.7,2.5,2.8c1.2,2.5,3.7,7.5,3.8,7.9
	c2.6,8.1,2.3,5.5,5.3,15.1c0.6,2,1.4,4.5,2.7,8.5c1,2.9,2,6.1,3.5,8.5c0.1,0.2,0.3,0.5,0.6,1.1c1,2.2,0.8,4.3,0.8,4.8
	c-0.3,3.8,2.8,12.4,3.6,23.3c0.7,9.5-0.7,17.2-1.4,21.3c-1.6,8.5-2.7,7.8-3.5,14.8c-0.7,5.7-0.4,10.7-1.5,19.2c0,0-0.5,3.9-2.9,8.8
	c-1.6,3.2-2.2,3.2-2.4,3.2c-1.1-0.2-0.9-3.9-1.8-8.1c-1.4-6.4-5.3-12.8-7-12.4c-1.9,0.4,0,8.5-2.3,22.4c-1.8,10.8-4.4,15-5.5,16.6
	C218.9,353.7,214.7,356.6,211.9,358.1z M231.4,333.5c-0.1,1.9-0.2,4.5-0.8,7.6c-0.6,3.4-1,5.8-2.4,8.6c-0.8,1.6-2.3,4.1-5,6.5
	c2.7-2.4,4.2-4.9,5-6.5c1.4-2.8,1.8-5.2,2.4-8.6C231.2,338,231.3,335.4,231.4,333.5z"/>
	<path fill="#1F0046" stroke="#000000" stroke-miterlimit="10" d="M228.7,154.3c0.5-0.9,2.9-5.1,7-10.6c0.3-0.4,0.5-0.7,0.7-0.9
	c4.6-6,8.5-9.8,8.1-10.3c-0.5-0.5-5.2,2.9-7.5,4.6c-4.2,3.1-6.6,5.3-6.8,5.1c-0.3-0.4,5.3-7.3,9.2-12.2c1.3-1.5,2.2-2.7,1.9-3.1
	c-0.6-0.8-5.3,1.5-8.7,3.8c-1.2,0.8-3.9,2.7-6.7,5.8c-1.5,1.7-2,2.6-4,4.7c-1.2,1.3-2.4,2.5-4.1,3.6c-2.3,1.5-3.7,1.7-5.6,2.5
	c-4.1,1.7-6.5,4.7-8.2,6.9c-3.3,4.1-4.5,8.2-5.3,11.1c-0.6,2.1-2.7,9.8-0.7,16.1c0.2,0.6,0.8,2.3,1,4.7c0.2,1.5,0.4,3.5-0.2,5.8
	c-0.4,1.5-1,2.6-2.1,4.7c-0.4,0.6-1.7,3-4,6c-1.9,2.4-2.2,2.4-3,3.9c-1.4,2.4-1.8,4.3-2,5c-0.3,1.5-0.2,2.6-0.2,3
	c0.1,2.8-0.2,3.4-0.7,11.1c-0.2,3.7-1,17.7-1.1,26c-0.2,9.5,0.6,16.9,2,31.7c1.7,17.4,4.1,34,2,45c-0.3,1.5-0.4,1.4-2.6,11.2
	c-0.9,3.7-1.4,6.3-3,9.5c-0.7,1.5-1.3,2.6-2.3,4c-2.6,3.4-4.6,5.7-4.6,5.7c-0.1,0.1-0.9,1-1.2,2.3c-0.1,0.5-0.1,0.9,0.1,1.2
	c0.2,0.4,0.7,0.6,1,0.7c1.9,0.7,3.8,2.2,5,2.2h0.1c0.1-0.1,0.4-0.3,0.6-0.6c0,0,1-0.9,2.2-1.7c0.5-0.4,1-0.7,1.4-1
	c1.1-0.7,2.2-1.2,2.7-1.4c0.9-0.3,2.3-0.7,6.3-0.3c2.5,0.3,3.8,0.6,4.8,0.8c4.2,0.6,7.8-1,10.8-2.4c1.2-0.6,6.8-3.2,11-9.3
	c2.7-3.9,3.8-7.5,4.5-9.9c0.7-2.3,0.9-4,1.4-7.4c0.1-0.6,1-6.8,1-11.7c0-0.2,0-1.3,0-3.5c0-2,0-2.6,0.2-3.5c0.3-2,0.4-3,1-3.2
	c1.4-0.5,6,5.8,7.6,13.3c0.9,4.1,0.5,6.9,1.4,7c1.2,0.2,3.2-4.8,4.1-7.6c1.5-4.6,1.7-8.3,1.8-9.4c0.7-11.5,1.2-18.6-1.5-27
	c-2.3-7.1-4.9-12.4-4.9-12.4c-0.3-0.6-1.3-2.6-2.4-5.4c-0.8-2-1.2-3.1-1.6-4.5c-0.8-2.9-0.5-4.5-0.7-9.3c-0.1-2.2-0.3-4.4-0.4-6.6
	c-0.3-5.4-1.6-14.8-3.5-22.8c-4-16.6-8.3-16.1-9.4-27.8l0,0c-0.4-3.1-0.4-5.5-0.3-7.3c0.1-2.4,0.4-3.4,0.9-3.5c0.2-0.1,0.5,0,1.5,1
	c2.1,2.4,2.1,4.2,3.3,4.5c0.5,0.2,1.3,0.1,2.6-1c-0.1-0.9-1.5-2.9-1.5-2.9c-0.1-0.3-0.3-0.7-0.5-1.2c-0.6-1.2-1.3-2-1.9-2.9
	c-0.6-0.8-0.9-1.1-1.3-1.8c-0.4-0.6-0.5-0.9-0.6-1.2c-0.3-0.7-0.4-1.2-0.4-1.5c-0.1-0.7-0.4-2.4,0.2-4.2c0.6-1.9,1.4-1.9,2.2-4.2
	c0.2-0.6,0.3-1.2,0.5-2.1c0.6-3.6,0.1-5.9,0.6-7.7C225.8,159.4,226.8,157.7,228.7,154.3z"/>
	<path fill="#FFFFFF" stroke="#000000" stroke-miterlimit="10" d="M218.9,159.1c-0.2-0.5-0.5-0.8-1-0.9c-0.8-0.2-1.6,0.4-2.1,0.9
	c-1.5,1.4-2.4,3.3-2.3,5.3c0,0.2,0,0.8,0.2,0.9s0.4-1.2,1.2-2.1c1.1-1.2,2.4-0.6,3.5-1.9C218.4,160.9,219.3,160,218.9,159.1z"/>
	<path fill="#995B00" stroke="#000000" stroke-miterlimit="10" d="M153.9,341.4c1.2,0.4,2.1,0.5,2.8,0.6c2.1,0.2,4.3,0,5.1-0.3
	c0.4-0.1,1-0.2,1.8-0.2c1,0,1.7,0.3,2.7,0.6c0.4,0.1,1,0.4,1.8,0.8c1.2,0.6,2.1,1.3,2.8,1.8c0.9,0.7,1,0.9,2.3,1.8
	c1.1,0.8,1.4,1,1.7,1.1c0.9,0.3,2.2,0.2,2.7-0.5c0.4-0.5-0.1-1,0.2-1.9c0.3-1,1-1.6,1.2-1.7c0.4-0.3,1.1-0.5,2.5-0.8
	c1.2-0.2,1.7-0.4,2.2-0.4c1.5-0.1,2,0.3,2.5-0.1c0.3-0.2,0.4-0.6,0.6-1.4c0.2-0.8,0.4-1.2,0.3-1.5c-0.1-1.7-4-2.7-5.4-3.1
	c-1-0.3-2.4-0.6-4.3-0.8c-1.5-0.1-4.4-0.1-7.6-0.1c-0.4,0-0.9,0-1.6-0.3c-0.8-0.3-0.9-0.7-1.4-0.8c-0.7-0.1-1.2,0.6-2.3,1.5
	c-0.6,0.4-2,1.6-3.9,1.9c-1.1,0.2-1.4-0.1-2.7,0.3c-0.8,0.2-1.7,0.4-2.2,1.2c-0.2,0.4-0.2,0.6-0.6,1.1
	C154.6,340.8,154.2,341.2,153.9,341.4z M176.5,347.3c-0.7-1.5-2.2-3.9-5-5.5c-2.6-1.5-5.1-1.5-7.4-1.6c-2.6-0.1-4.8,0.2-6.3,0.5
	c0.9-0.2,2-0.4,3.3-0.5c0.3,0,1.4-0.1,3,0c1.3,0.1,2.8,0.1,4.5,0.6c0.4,0.1,1.7,0.4,2.8,1C174.2,343.3,175.7,345.8,176.5,347.3z
	 M163.4,337.8c1.4-0.1,3.5-0.2,6,0.5c3.5,0.9,5.8,2.8,7,3.9c-1.2-1-3.4-2.6-6.5-3.6C167.3,337.7,164.9,337.7,163.4,337.8z"/>
	<path fill="#F6FFD5" stroke="#000000" stroke-miterlimit="10" d="M186.8,338.6c-0.5,0.1-1.4-1-4.3-1.9c-4-1.3-8.1-1.1-8.4-1.1
	c-1.4,0.1-2.9-0.2-4.3-0.1c-0.4,0-1.2,0.1-2.1-0.3c-0.6-0.3-1-0.7-1.1-0.8c-1.2-1.3,3-6,4.9-11.5c2.4-6.9,0.9-14.1,0.8-14.5
	c-0.5-2.5-1.5-4.9-0.9-5.2c0.2-0.1,0.6,0.1,3,2.9c2.4,3,3.7,4.4,4.5,6c1.2,2.3,2.3,4.4,2.4,7.2c0,0.8,0,1.8,0.3,1.9
	c0.5,0.1,1.4-2.1,1.9-3.3c1.1-2.6,1.7-4.8,1.7-5c0.6-2.5,1.4-5.7,1.7-10.1c0.3-4.2-0.1-7.5-0.3-9c-0.1-1.1-1.1-8.8-4.4-14.8
	c-0.9-1.7-2-3.4-2-3.4c-0.8-1.3-1.6-2.4-3-4.4c-2-2.8-2.5-3.6-2.9-5c-0.1-0.6-0.2-1-0.2-2.5c0-3.5,0.1-5.6,0.2-7.5
	c0-1.4,0.1-4-0.3-7c-0.5-3.5-1.1-3.7-1.8-7.2c-1.2-5.5,0.2-6-1-11.8c-0.7-3.2-1.6-5.9-2.1-7.1c-1-2.9-1.6-4.3-2.1-5
	c-0.6-0.8-1.4-1.7-1.6-3.1c0-0.6,0-1.3,0.1-1.8c0.1-1.1,0.3-1.5,0.4-2.2c0.2-1.2,0-2.1-0.1-3c-0.5-3.1-2.4-6-3.3-7.4
	c-0.6-0.9-1.3-1.7-1-2.3c0.4-0.7,2.1-0.4,2.6-0.3c2.2,0.4,5.9,1.9,7.7,5.6c0.7,1.4,0.8,2.6,1.2,2.5c0.3,0,0.5-1.3,1.1-4
	c0.4-2.1,0.7-3.4,1.6-4.7c0.3-0.4,0.5-0.7,0.7-0.9c0.9,0.6,2.4,1.7,3.7,3.5c1.1,1.6,1.7,3.1,2,4.1c0.4,1.2,1.2,2.8,2.3,4.6
	c0.8,1.2,1.5,2.1,1.9,2.5c0.2,0.2,0.1,0.1,0.2,0.2c0.8,1,0.9,2.3,0.8,3.7c0,1.7-0.1,2.5-0.2,3.1c-0.1,0.4-0.3,4.6-0.8,13.1
	c-0.5,9.3-0.6,15.8-0.8,27.1c0,1.3-0.1,3.5,0.1,6.5c0.2,3.9,0.5,6.8,0.8,8.9c1.3,11,1.9,16.5,2.3,21.8c0.2,3.4,0.2,4.6,0.5,7.8
	c0.2,2.5,0.5,4.3,0.6,7.4c0.1,1.4,0.1,2.6,0.1,3.5c0,2.1,0,3.9-0.1,6.3c-0.1,2.8-0.1,4.4-0.4,6.4c-0.5,3.7-0.9,3.2-1,5.6
	c-0.1,1.6-0.4,2.6-1,4.5C187.4,337.9,187.3,338.5,186.8,338.6z M181.1,322.3c-0.8,1.9-2.1,4.9-3.7,7.8c-0.4,0.7-0.9,1.6-1.9,2.6
	c-1.1,1.1-2.2,1.9-3,2.3c0.8-0.4,1.9-1.2,3-2.3c0.8-0.8,1.4-1.6,2.1-2.7C179.3,327.3,180.5,324.4,181.1,322.3z M175.6,324.4
	c0.1,1.1,0.2,2.3,0.6,3.7c0.9,3.7,2.8,6.4,4.1,8.1c-1.4-1.6-3.2-4.3-4.1-8.1C175.8,326.8,175.7,325.5,175.6,324.4z"/>
	<path fill="#1B0039" stroke="#000000" stroke-miterlimit="10" d="M193.3,154.8c-3.4,2.3-6.3,4.3-8.6,5.9c-2.8,2.8-5.2,5.3-7.2,7.3
	c-0.6,0.6-1.7,1.7-2.2,3.3c-0.2,0.5-0.3,1.4-0.1,3.5c0.4,3.1,1,3.9,1.4,6.3c0.1,0.8,0.1,2.2,0,5.1c0,1.9-0.1,2.8-0.1,3.4
	c-0.3,3.1-0.8,3.8-0.3,5.1c0.2,0.5,0.6,1.1,0.4,1.7c-0.1,0.4-0.4,0.5-0.8,1c-0.1,0.1-0.5,0.5-0.8,1.7c-0.4,2.1-0.4,3.1-0.7,4.5
	c-0.2,1-0.7,2.9-1.1,2.8c-0.3,0-0.4-0.8-0.5-1.3c-0.7-3.1-3.6-5.1-4.3-5.5c-2.5-1.7-6.1-2.3-6.7-1.3c-0.5,0.8,1.6,1.9,3.1,5.7
	c0.7,1.7,1.3,3.3,1.2,5.4c-0.1,1-0.3,1.9-0.3,3.7c0,1.1,0,1.7,0.2,2.4c0.3,0.9,0.6,1.2,1.4,3.1c0.2,0.4,0.3,0.7,0.6,1.3
	c1.1,2.7,2,5.3,2,5.3c1,3.1,1.5,4.7,1.7,6.7c0.2,2.6-0.3,2.9,0,5.8c0.1,1.1,0.4,2.2,0.9,4.5c1.5,6.4,1.5,6.3,1.5,6.4
	c0.7,3.8,0.6,6.9,0.5,9.9c-0.2,4.6-0.7,5-0.2,7s1.2,2.5,3.8,6.4c1.7,2.6,3.3,5.1,4.8,8.3c2,4.2,2.8,7.5,3,8.5
	c0.1,0.6,0.6,2.8,0.8,6.1c0.1,2.1,0.5,9.6-2.1,19.2c-0.4,1.3-2,7.1-2.9,6.9c-0.4-0.1-0.3-1.5-0.8-3.6c-0.8-3.7-2.7-6.3-4.4-8.7
	c-2-2.7-4.8-5.7-5.3-5.3c-0.2,0.2,0.1,0.9,0.4,1.7c0.8,2.3,0.9,4.1,1,7.5c0,1,0.1,5.1-1.3,10.1c-1.4,5-3.4,8.1-5.2,10.8
	c-1.5,2.3-2.5,3.3-3.8,3.8c-1.1,0.4-1.6,0.1-4.2,0.8c-2.3,0.6-2.7,0.9-3,1.3c-0.5,0.6-0.6,1.2-1.4,1.8c-0.2,0.1-0.7,0.4-1.4,0.4
	c-0.5,0-0.8-0.2-0.9-0.3c-0.4-0.3-0.5-0.5-0.8-0.7c-0.6-0.4-1.6-0.1-2,0c-2,0.6-5,0.1-5.6-1.1c-0.3-0.6,0.1-1,0.8-2.8
	c0,0,0.8-1.8,1.4-4.8c0.5-2.1,0.3-3.6,0.2-6.2c-0.4-6.2,0.1-5.9-0.2-10.5c-0.4-6-1.2-5.4-1.7-10.8c-0.3-4-0.1-7.8,0.4-15.4
	c0.3-4.2,0.4-4.2,0.4-6.4c0.1-4.7-0.4-7.8-0.8-11.6c-0.5-4.8-0.6-8.3-0.8-13.3c-0.4-11.9,0.6-21.3,1-25c0.1-1.2,0.7-4.6,1.8-11.6
	c0.5-2.9,1.3-9.6,3.1-23c0.1-0.8,0.3-2.1,0.2-3.9c-0.1-2.3-0.4-3.1-0.6-4.7c-0.2-2.8,0.5-5,1.3-7.2c0.6-1.6,1.4-4.1,3.5-6.5
	c0.9-1,1.9-2.2,3.5-3.1c1.6-0.8,2.2-0.7,4.5-1.7c1.8-0.8,3-1.6,3.7-2c2.3-1.5,3.5-2.8,4.8-4c2.5-2.3,4.6-3.7,7.9-5.8
	c1.7-1.1,4.7-3,8.9-4.8c4.4-1.8,10.1-3.5,10.5-2.8C197.4,151.9,196.5,152.6,193.3,154.8z"/>
	<path fill="#FFFFFF" stroke="#000000" stroke-miterlimit="10" d="M161.9,177.2c-0.8,0-1.6,0.2-2.3,0.6c-1.5,0.9-2.5,2.4-2.8,4.1
	c-0.6,1.9-0.4,3.9-0.1,3.9s0.3-1.2,1.4-2.5s2.3-1.2,3.2-2.4C161.9,179.8,162.2,178.5,161.9,177.2z"/>
	<path fill="#995B00" stroke="#000000" stroke-miterlimit="10" d="M100.5,365.3c0.1,0.6,0.4,1.7,1.1,2.8c0.6,1,1.4,1.6,1.9,2
	c0.6,0.5,1.4,1.3,2.7,1.7c1.2,0.4,1.6,0.2,4.4,0.6c1.9,0.2,2.9,0.4,3.6,0.8c1,0.5,1.2,1,2.4,1.4c1,0.3,1.8,0.4,2.3,0.4
	c2,0,2.5-0.7,4.1-0.5c1.3,0.2,1.9,0.7,2,0.5c0.4-0.6-5.2-4.8-4.4-6.3c0.2-0.4,0.6-0.2,2.1-0.8c1.7-0.7,1.8-1.1,3.1-1.5
	c0.8-0.2,1.6-0.2,3.1-0.3c2.2,0,2.9,0.2,3.3-0.3c0.3-0.3-0.1-0.5-0.3-2.6c-0.1-1.5-0.2-2.2,0.1-2.7c0-0.1,0.1-0.2,0.1-0.3
	c-0.2-0.3-1.2,0.3-2,0.5c-1.5,0.5-3,0.3-5.9,0c-1.8-0.2-2.2-0.4-2.9-0.1c-1.4,0.6-1.5,1.9-2.3,1.9c-1.4,0-2-5.1-3.2-5
	c-0.2,0-0.3,0.2-1.2,1.4c-0.8,1.1-1.4,1.9-1.8,2.3c-0.6,0.7-1.8,1.1-4,2c-2.9,1.1-3.1,0.8-4.8,1.6c-0.3,0.1-0.9,0.4-1.8,0.5
	C101.5,365.3,100.9,365.3,100.5,365.3z M109.6,363.1c0.2,0.9,0.5,2.1,1.6,3.1c1,0.9,2.2,1,4.1,1.3c1.4,0.2,3.4,0.5,5.9,1.1
	c-2.5-0.6-4.5-0.9-5.9-1.1c-2-0.3-3.1-0.4-4.1-1.3C110.1,365.3,109.7,364,109.6,363.1z M111.4,362.3c0.2,0.7,0.7,2,1.8,2.7
	c0.9,0.6,1.9,0.5,2.5,0.4c2.1-0.2,6.7-0.5,9.2-0.4c1.1,0.1,2.8,0.2,4.9,0.9c-2.1-0.7-3.8-0.9-4.9-0.9c-2.5-0.1-7.1,0.2-9.2,0.4
	c-0.6,0-1.6,0.1-2.5-0.4C112.1,364.2,111.6,363,111.4,362.3z M112.3,361.9c0.7,0.4,1.8,0.9,3.3,1.3c1.1,0.2,2,0.3,5.1,0.2
	c1.2,0,2.8-0.1,4.6-0.2c-1.8,0.1-3.4,0.2-4.6,0.2c-3.2,0.1-4.2,0-5-0.2C114.1,362.8,113,362.3,112.3,361.9z"/>
	<path fill="#F6FFD5" stroke="#000000" stroke-miterlimit="10" d="M118.5,242.4c-0.9-1.1-3.1-3.8-4.3-3.3c-0.3,0.1-0.7,0.5-0.8,2.2
	c0.1-0.3,0.9-4.4-1.8-6.9c-1-0.9-2.1-1.3-2.8-1.4c-0.3-0.1-0.7-0.2-1.1-0.2c-0.7,0-1.2,0.2-1.5,0.3s-1.9,0.9-2.5,2.6
	c-0.6,1.6-0.2,3.5,1,4.9c0.9,1.4,2.2,3.6,3.2,6.3c1,2.6,1.3,4.7,1.8,7.2c1.6,8.8,1.8,9.1,2.2,11.8c0.6,4.5,0.5,7.9,0.5,11.3
	c0,1.8,0,2.7-0.1,3.6c-0.3,3.2-0.9,4.3-1.1,6.6c-0.1,1.4,0,3.4,0.8,5.9c0.6,1.2,1.1,2.1,1.5,2.8c0.7,1.1,1.2,1.6,2,2.9
	c0,0,0.6,0.9,1.2,2.1c2.6,5,3.6,14.7,3.6,14.8c0.3,3.4,0.6,6,0.4,9.6c-0.1,2.3-0.4,5.9-1.9,9.6c-1.3,3.1-3.4,5.9-4.1,5.6
	c-0.5-0.2-0.7-1.5-1-4.2c-0.1-1.1-0.1-1.1-0.2-1.8c-0.1-0.9-0.4-2.6-1.2-4.7c-0.6-1.5-1-2.8-2-4.2c-1.1-1.5-1.7-2.3-2.4-2.3
	c-1.8,0.2-2.9,6.7-3,11.5c0,2.1,0.2,1.8,0.2,6c0,0,0,4-1,8.8c-0.1,0.5-0.3,1.3-0.9,2.1c-0.6,0.7-1.1,1-2,1.5
	c-0.6,0.4-2.2,1.4-3.5,2.9c-1,1.1-1.7,1.8-2,3c-0.3,1.1,0,1.7-0.5,2.8c-0.5,1.1-1.2,1.2-1.1,1.7c0.1,1,3,1.6,5.6,1.7
	c1.5,0,3.2-0.2,6.4-1.2c5.6-1.8,6.6-2.2,7.1-2.8c0.6-0.8,1.2-1.5,1.8-2.3c0.2-0.3,0.3-0.5,0.6-0.9c0.3-0.3,0.4-0.5,0.6-0.5
	s0.3,0.2,0.6,0.9c0.3,0.6,0.4,0.9,0.5,1.3c0.2,0.9,0.9,3,1.8,3c0.4,0,0.6-0.5,1.7-1.9c0.2-0.2-0.1,0.1,1.7-2c1.9-2.2,2.8-3.3,3-3.5
	c0.9-1.2,1.5-2.6,2.6-5.4c1.2-3,1.8-5.2,2.1-6.4c0.6-2.3,0.7-3.3,0.7-4c0-1-0.1-0.8-0.1-3.1c0-2.7,0-4,0-4.2c0-0.5,0.1-1.1-0.1-1.8
	c-0.2-0.6-0.6-1.6-1.3-1.7c-0.8,0-1.4,1.9-1.6,1.8c-0.3-0.1,0.6-2.6,0.8-5.2s-0.3-3.6-0.9-7.7c-0.4-2.6-0.5-4.4-0.7-7.6
	c-0.1-1.8-0.1-2.5-0.3-10.9c-0.1-6.6-0.1-7.3,0-8.9c0.2-2.4,0.5-4.7,1.4-7.7c0.9-3,1.7-3.6,2.1-6.2c0.3-1.4,0.4-3.1,0.1-5.9
	c-0.8-7.1-3.2-12.7-4.8-16.2c-0.5-1.2-1.7-3.4-4.1-7.8C120.7,245.5,119.9,244.1,118.5,242.4z M121.5,343.8c-0.4,2-1.1,4.3-2.1,6.9
	c-1.1,2.7-2.3,5-3.5,6.8c1.2-1.9,2.5-4.3,3.6-7.2C120.4,347.9,121.1,345.7,121.5,343.8z"/>
	<path fill="#1B0039" stroke="#000000" stroke-miterlimit="10" d="M116.2,239.2c-0.7-0.2-1.5-0.4-2,0c-0.8,0.6-0.6,2.2-0.7,2.2
	s0.7-4.1-1.3-6.5c-1.3-1.5-3.2-2.2-5.2-1.8c-1.3,0.3-2.4,1.2-3.1,2.3c-1.4,2.8,1.5,6.2,3.9,11.4c1.5,3.4,2.1,6.8,3.2,13.6
	c1.1,6.2,1.9,11.3,1.5,18c-0.5,7.3-2.1,9.7-0.5,14.5c1.1,3.5,2.4,3.5,4.6,7.7c2.9,5.5,3.3,10.4,3.9,16.8c0.5,6,0.9,10.9-1.2,16.5
	c-1.2,3.2-3.3,6.9-4.5,6.6c-1-0.3-0.5-3.1-1.5-7.5s-3.6-10-5.4-9.8c-2,0.2-2.8,7.3-3,10.3c-0.3,4.4,0.5,5.6,0,11.2
	c-0.5,5.1-1.4,6.4-2.1,7.2c-1.1,1.2-1.9,1.2-4.3,3.5c-1,0.8-1.8,1.9-2.4,3c-0.9,1.8-0.4,2.5-1,3.5c-1.2,2-4.2,2.2-6.2,2.3
	c-2.8,0.2-5.6-0.3-8.1-1.5c0.8-1.1,1.4-2.3,1.9-3.5c0.8-2.2,1.2-4.5,1.2-6.8c0.1-5.3-1.3-6.8-1.7-14.7c0-0.5,0-1-0.1-1.6
	c-0.2-7.6,2-10,3-16.8c0.3-2.1,0.2-5.8,0.1-13.1c-0.1-2.5-0.1-4.5-0.4-6.9s-0.5-3.4-0.8-5.8c0,0-0.4-3.3-0.6-8.3
	c-0.6-13.3,3.2-35.4,5.8-44.7c1-3.5,1.5-5.4,3-7.7c1.1-1.8,2-2.5,2.7-4.4s0.4-3,0.5-6.1c0-3.4,0.7-6.7,2.2-9.7
	c0.9-1.9,2.2-3.5,3.8-4.8c1.9-1.5,2.9-1.5,4.6-2.8s1.9-2.4,4-5.4c2-2.8,4.4-5.4,7.1-7.7c1.9-1.6,5.3-4.1,6-3.5
	c0.4,0.4-0.3,1.9-0.7,2.8c-0.4,0.9-0.9,1.7-1.5,2.4c-2.6,2.8-4.7,6-6.3,9.5c-1,2-1.6,4.2-1.7,6.5c-0.1,4.3,2.1,4.9,2.9,10
	c0.8,4.5,0.1,8.8-0.1,9.7c-0.4,1.4-1,3.1-0.7,5.4c0.2,1.3,0.5,2.3,0.8,3C115.8,238.3,116,238.7,116.2,239.2z"/>
	<path fill="#080039" stroke="#000000" stroke-miterlimit="10" d="M130,276.9c-1,1.9-2.2,4.9-3,8.7c-0.6,2.9-0.6,6.3-0.6,13.1
	c0,6,0,9,0.3,11.9c0.7,6.6,1.1,9,1.1,9c0.5,2.8,0.9,4.2,0.6,6.5c-0.3,2.3-1.2,4.4-0.9,4.5c0.3,0.1,1-1.8,1.9-1.7
	c0.6,0.1,1,1.3,1.2,2.3c0-1.5,0.3-2.6,0.5-3.4c0.3-0.9,0.5-1.2,0.7-1.2c0.3,0,0.5,0.5,1.1,1.4c0,0,0.6,0.8,1.4,1.5
	c0.8,0.7,1.6,1.4,2.1,1.3c1.3-0.2,1.4-4.8,1.4-6.9c0.1-4.9-0.4-9.1-1-13.7c-0.1-0.4-0.3-2.2-0.5-4.5c-0.2-1.5-0.3-2.3-0.3-2.5
	c-0.1-1.5-0.1-2-0.3-2.8c-0.3-1.1-0.7-1.8-0.9-2.3c-0.8-1.6-1-3-1.4-6c-0.3-2.2-0.4-4.2-0.7-6.3c-0.1-0.3-0.2-1-0.4-1.7
	c-0.2-0.9-0.5-1.5-0.6-1.8C131.4,281.3,130.9,279.6,130,276.9z"/>
	<path fill="#FFFFFF" stroke="#000000" stroke-miterlimit="10" d="M103.6,220c0.5-0.3,1,0.1,1.5-0.3c0.7-0.5,0.9-1.4,0.4-2.1
	c-0.3-0.5-0.8-0.7-1.4-0.6c-1.1,0.1-1.8,1.9-1.9,2.5c-0.9,2.6,0.2,5.3,0.4,5.3s0-0.8,0.3-2.6C103.1,220.5,103.3,220.2,103.6,220z"/>
	<path fill="#00F6E4" stroke="#000000" stroke-miterlimit="10" d="M306.3,17.4l0.3,0.3c1.3,1.5,2.4,3,3.4,4.7c6.9,11.9,8,14.4,8,14.4
	c1.7,3.7,6.2,13.4,11,23.6c6.7,14.3,9.2,18.7,12.8,27c3,6.8,7.2,17,11.3,29.8c-10-0.8-17.5-3.3-22.4-5.4c-9.7-4.1-11.4-7.5-24.6-14
	c-1.8-0.9-9-4.4-18.8-7.8c-4.4-1.5-4.6-1.4-22.5-7c-9-2.8-11.9-3.8-15.3-6.4c-1.3-1-3-2.5-6-3.9c-1.6-0.8-4.8-2.2-8.8-2.3
	c-2.2,0-4.4,0.4-9.3,2.5c-6.3,2.7-7.7,4.2-12.1,6.4c-2.8,1.4-7.8,2.7-17.6,5.4c-6.7,1.8-6.9,1.7-14,3.6c-5.1,1.4-5.5,1.5-16.1,4.5
	c-12.2,3.4-14.3,3.9-16.5,4.4c-5.9,1.3-8.9,2-13.3,2.4c-9.6,0.9-18.3-0.2-21.8-0.5l0,0c-9.7-1.3-16.1-3.7-18-4.5
	c-4-1.6-7.6-3.5-8.8-4.1c-3.5-1.9-6-3.5-7.9-4.7c-2.4-1.6-5.2-3.9-10.8-8.7c-1-0.9-2.5-2.1-2.3-3.6c0.1-0.9,0.8-1.3,1.9-3.4
	c0.5-0.9,0.7-1.6,1-2c1.6-3.4,4.7-9.7,8.9-17.3c10.6-19,17.9-31.9,28.6-39.8c1.1-0.8,2.2-1.5,2.2-1.5c2.4-1.4,5-2.4,7.7-3.1
	c3.3-0.9,6.7-1.6,10.1-2.1c6.8-0.7,15.7-1.4,26-2C178,0.8,197.7,1,206.2,1.1c18.9,0.3,33.5,1.6,62.8,4.2c0,0,4.6,0.4,13.9,2
	c7.8,1.3,12.3,2.5,16.9,5C302.2,13.7,304.4,15.4,306.3,17.4z"/>
</svg>
